<?xml version="1.0" encoding="UTF-8" standalone="no"?>
<svg
   width="631.76801mm"
   height="123mm"
   viewBox="0 0 631.76801 123"
   version="1.1"
   id="svg837"
   xml:space="preserve"
   xmlns:xlink="http://www.w3.org/1999/xlink"
   xmlns="http://www.w3.org/2000/svg"
   xmlns:svg="http://www.w3.org/2000/svg"
   xmlns:rdf="http://www.w3.org/1999/02/22-rdf-syntax-ns#"
   xmlns:cc="http://creativecommons.org/ns#"
   xmlns:dc="http://purl.org/dc/elements/1.1/"><defs
     id="defs831"><linearGradient
       id="linearGradient4105"><stop
         style="stop-color:#001487;stop-opacity:1;"
         offset="0"
         id="stop4101" /><stop
         style="stop-color:#0000dc;stop-opacity:1;"
         offset="1"
         id="stop4103" /></linearGradient><rect
       x="470.15475"
       y="38.43227"
       width="2157.9641"
       height="425.35559"
       id="rect5653" /><linearGradient
       id="linearGradient4335"><stop
         style="stop-color:#d23ccd;stop-opacity:1;"
         offset="0"
         id="stop4331" /><stop
         style="stop-color:#d23ccd;stop-opacity:1;"
         offset="0.5"
         id="stop4337" /><stop
         style="stop-color:#a523a5;stop-opacity:1;"
         offset="0.75"
         id="stop4339" /><stop
         style="stop-color:#a523a5;stop-opacity:1;"
         offset="1"
         id="stop4333" /></linearGradient><linearGradient
       id="linearGradient2910"><stop
         style="stop-color:#000000;stop-opacity:1;"
         offset="0"
         id="stop2908" /></linearGradient><pattern
       id="EMFhbasepattern"
       patternUnits="userSpaceOnUse"
       width="6"
       height="6"
       x="0"
       y="0" /><linearGradient
       xlink:href="#linearGradient1002"
       id="linearGradient1004"
       x1="29.457537"
       y1="135.99364"
       x2="37.707413"
       y2="156.26247"
       gradientUnits="userSpaceOnUse"
       gradientTransform="translate(-20.707412,-129.25006)" /><linearGradient
       id="linearGradient1002"><stop
         style="stop-color:#326400;stop-opacity:1"
         offset="0"
         id="stop998" /><stop
         style="stop-color:#327d00;stop-opacity:1;"
         offset="0.5"
         id="stop1912" /></linearGradient><linearGradient
       xlink:href="#linearGradient1002-2"
       id="linearGradient1004-3"
       x1="29.457537"
       y1="135.99364"
       x2="37.707413"
       y2="156.26247"
       gradientUnits="userSpaceOnUse"
       gradientTransform="translate(154.39625,2.62385)" /><linearGradient
       id="linearGradient1002-2"><stop
         style="stop-color:#326400;stop-opacity:1"
         offset="0"
         id="stop998-9" /><stop
         style="stop-color:#329600;stop-opacity:1"
         offset="1"
         id="stop1006" /></linearGradient><linearGradient
       xlink:href="#linearGradient4335"
       id="linearGradient3477"
       x1="-366.83304"
       y1="-181.54158"
       x2="633.16797"
       y2="395.81244"
       gradientUnits="userSpaceOnUse"
       gradientTransform="matrix(0.1,0,0,0.09959291,95.682998,141.8302)" /><linearGradient
       xlink:href="#linearGradient3477-8"
       id="linearGradient9978"
       x1="38.019283"
       y1="37.927799"
       x2="69.981155"
       y2="85.071693"
       gradientUnits="userSpaceOnUse" /><linearGradient
       id="linearGradient3477-8"
       x1="-366.82999"
       x2="633.16998"
       y1="-181.53999"
       y2="395.81"
       gradientTransform="matrix(0.1,0,0,0.099593,95.683,141.83)"
       gradientUnits="userSpaceOnUse"
       spreadMethod="pad"><stop
         stop-color="#8a1e91"
         offset="0"
         id="stop4981"
         style="stop-color:#001487;stop-opacity:1;" /><stop
         stop-color="#c01eeb"
         offset="1"
         id="stop4987"
         style="stop-color:#000000;stop-opacity:1" /></linearGradient><linearGradient
       xlink:href="#linearGradient4105"
       id="linearGradient4107"
       x1="54.000214"
       y1="47.88739"
       x2="91.449615"
       y2="97.466797"
       gradientUnits="userSpaceOnUse" /></defs><metadata
     id="metadata834"><rdf:RDF><cc:Work
         rdf:about=""><dc:format>image/svg+xml</dc:format><dc:type
           rdf:resource="http://purl.org/dc/dcmitype/StillImage" /></cc:Work></rdf:RDF></metadata><path
     id="path847-3-8-1-6"
     style="font-variation-settings:normal;vector-effect:none;fill:url(#linearGradient4107);fill-opacity:1;fill-rule:nonzero;stroke:none;stroke-width:3.94788;stroke-linecap:butt;stroke-linejoin:miter;stroke-miterlimit:4;stroke-dasharray:none;stroke-dashoffset:0;stroke-opacity:1;-inkscape-stroke:none;stop-color:#000000;opacity:1;stop-opacity:1"
     d="M 54.000215,4.00015 21.561372,22.65224 34.035546,29.85439 54.000215,18.37498 91.500255,39.93749 V 77.2887 l 12.500015,7.21713 V 32.74982 Z M 16.551342,25.5332 4.025491,32.73535 16.500182,39.93749 31.812426,48.7783 v 18.59369 l 8.682157,4.99195 6.231142,-10.79263 -2.413287,-1.38699 V 48.68424 l 10.000427,-5.75003 2.38228,1.36994 6.23063,-10.79262 -8.61291,-4.95216 -16.293583,9.36843 -8.993766,-5.19245 z M 4.00017,38.49417 V 90.25018 L 54.000215,118.99985 86.439585,100.34724 73.964895,93.1451 54.000215,104.62502 16.500182,83.06251 V 45.7113 Z m 50.000045,9.39322 -5.00021,2.87476 v 5.75004 l 5.00021,2.87528 5.00022,-2.87528 v -5.75004 z m 12.63489,2.24741 -6.23063,10.79262 3.28352,1.88774 v 11.5006 l -10.00042,5.74951 -3.25251,-1.87017 -6.231147,10.79263 9.483657,5.4529 16.29358,-9.36894 8.99377,5.19245 h 5e-4 L 91.449615,97.4668 103.97494,90.26465 91.500255,83.06199 76.188015,74.2217 V 55.62801 Z m -12.63489,13.25346 -4.99969,2.87527 v 5.74952 l 4.99969,2.87528 5.00022,-2.87528 v -5.74952 z" /><path
     d="m 189.53004,72.17152 c 0,-10.67152 -5.20347,-15.61041 -20.2847,-15.61041 h -24.25345 c -5.82083,0 -7.49652,-1.94027 -7.49652,-6.70276 0,-4.7625 1.67569,-6.61458 7.49652,-6.61458 h 41.01038 c 0.52916,-4.05694 1.05833,-8.02569 1.4993,-12.08263 h -42.50968 c -14.72846,0 -19.57914,4.93889 -19.57914,17.02151 v 2.02847 c 0,11.11249 4.67429,16.31596 19.22636,16.31596 h 24.60624 c 6.26179,0 8.02567,1.5875 8.02567,6.70277 0,5.20347 -1.85208,6.70277 -8.29026,6.70277 H 127.7058 c -0.26458,3.96875 -0.61736,7.93749 -0.79375,11.90624 h 42.86246 c 14.46388,0 19.75554,-4.6743 19.75554,-17.55068 z"
     style="font-size:333.333px;font-family:'Sui Generis';-inkscape-font-specification:'Sui Generis';text-align:center;white-space:pre;fill:#001487;stroke-width:3.94787;fill-opacity:1"
     id="path12564" /><path
     d="M 233.4508,91.83886 V 69.52569 L 262.73134,31.16114 H 248.88482 L 227.89457,59.55972 206.72792,31.16114 H 192.9696 l 28.57497,38.36455 v 22.31317 z"
     style="font-size:333.333px;font-family:'Sui Generis';-inkscape-font-specification:'Sui Generis';text-align:center;white-space:pre;fill:#001487;stroke-width:3.94787;fill-opacity:1"
     id="path12566" /><path
     d="M 334.60974,91.83886 V 31.16114 H 323.14447 V 75.08193 L 281.51673,31.16114 h -12.78819 v 60.67772 h 11.37708 V 47.12432 l 42.77426,44.71454 z"
     style="font-size:333.333px;font-family:'Sui Generis';-inkscape-font-specification:'Sui Generis';text-align:center;white-space:pre;fill:#001487;stroke-width:3.94787;fill-opacity:1"
     id="path12568" /><path
     d="M 419.54099,91.83886 386.29172,31.16114 h -12.43541 l -33.24926,60.67772 h 13.58193 l 7.58471,-14.1111 h 36.60066 l 7.58473,14.1111 z M 393.87644,68.20277 H 366.3598 l 13.75833,-25.13539 z"
     style="font-size:333.333px;font-family:'Sui Generis';-inkscape-font-specification:'Sui Generis';text-align:center;white-space:pre;fill:#001487;stroke-width:3.94787;fill-opacity:1"
     id="path12570" /><path
     d="m 471.31105,72.17152 c 13.93471,0 18.34444,-4.6743 18.34444,-17.10971 v -5.46805 c 0,-14.0229 -4.40973,-18.43262 -18.34444,-18.43262 H 425.80277 V 91.83886 H 437.709 V 72.17152 Z m 6.52637,-17.02151 c 0,4.32152 -1.76387,6.1736 -6.52637,6.1736 H 437.709 V 43.15557 h 33.60205 c 4.7625,0 6.52637,1.6757 6.52637,6.43819 z"
     style="font-size:333.333px;font-family:'Sui Generis';-inkscape-font-specification:'Sui Generis';text-align:center;white-space:pre;fill:#001487;stroke-width:3.94787;fill-opacity:1"
     id="path12572" /><path
     d="m 560.5638,72.17152 c 0,-10.67152 -5.20348,-15.61041 -20.28471,-15.61041 h -24.25345 c -5.82084,0 -7.49652,-1.94027 -7.49652,-6.70276 0,-4.7625 1.67568,-6.61458 7.49652,-6.61458 H 557.036 c 0.52917,-4.05694 1.05833,-8.02569 1.49931,-12.08263 h -42.50967 c -14.72846,0 -19.57914,4.93889 -19.57914,17.02151 v 2.02847 c 0,11.11249 4.67428,16.31596 19.22637,16.31596 h 24.60622 c 6.26179,0 8.02569,1.5875 8.02569,6.70277 0,5.20347 -1.85209,6.70277 -8.29027,6.70277 h -41.27498 c -0.26458,3.96875 -0.61735,7.93749 -0.79375,11.90624 h 42.86248 c 14.46387,0 19.75553,-4.6743 19.75553,-17.55068 z"
     style="font-size:333.333px;font-family:'Sui Generis';-inkscape-font-specification:'Sui Generis';text-align:center;white-space:pre;fill:#001487;stroke-width:3.94787;fill-opacity:1"
     id="path12574" /><path
     d="M 627.76784,91.83886 V 79.93262 H 581.3776 V 66.35069 h 45.06732 V 56.56111 H 581.3776 V 43.15557 h 46.39023 V 31.16114 h -58.29647 v 60.67772 z"
     style="font-size:333.333px;font-family:'Sui Generis';-inkscape-font-specification:'Sui Generis';text-align:center;white-space:pre;fill:#001487;stroke-width:3.94787;fill-opacity:1"
     id="path12576" /></svg>
